<svg xmlns="http://www.w3.org/2000/svg" xmlns:xlink="http://www.w3.org/1999/xlink" version="1.1" x="0px" y="0px" viewBox="0 0 100 125" style="enable-background:new 0 0 100 100;" xml:space="preserve"><g><path d="M52.9,17.3L52.9,17.3L50,10.1l-2.7,6.6c-0.1,0.1-0.1,0.3-0.2,0.5L47,17.3l0,0C47,17.6,47,17.8,47,18.1   c0,1.7,1.4,3.1,3.1,3.1c1.7,0,3.1-1.4,3.1-3.1C53.1,17.8,53,17.6,52.9,17.3z"/><path d="M61.9,53c1.2-0.4,2-1.6,2-2.9V35.9c0-1.3-0.9-2.5-2.1-2.9L73.6,4.7V4.4c0-1.7-1.6-3.1-3.5-3.1H29.8c-1.9,0-3.5,1.4-3.5,3.1   v0.3L38.1,33c-1.2,0.4-2,1.6-2,2.9v14.2c0,1.3,0.8,2.4,1.9,2.8L19.7,90.8v0.4c0,4.1,3.4,7.5,7.5,7.5h45.7c4.1,0,7.5-3.4,7.5-7.5   v-0.4L61.9,53z M39.3,49.9V36.1h21.3v13.8H39.3z M29.8,4.6h40.4c0,0,0,0,0,0L58.4,32.8H41.5L29.8,4.6C29.8,4.6,29.8,4.6,29.8,4.6z    M72.9,95.4H27.1c-2.2,0-4-1.7-4.2-3.9l18.5-38.3h17l18.7,38.3C76.9,93.7,75.1,95.4,72.9,95.4z"/><path d="M70.1,92.7H29.8c-1.4,0-2.6-1.2-2.6-2.6l8-16.7h29.1L72.7,90C72.7,91.5,71.5,92.7,70.1,92.7z"/></g><text x="0" y="115" fill="#000000" font-size="5px" font-weight="bold" font-family="'Helvetica Neue', Helvetica, Arial-Unicode, Arial, Sans-serif">Created by Joshua Lepley</text><text x="0" y="120" fill="#000000" font-size="5px" font-weight="bold" font-family="'Helvetica Neue', Helvetica, Arial-Unicode, Arial, Sans-serif">from the Noun Project</text></svg>