<svg xmlns="http://www.w3.org/2000/svg" xmlns:xlink="http://www.w3.org/1999/xlink" version="1.1" x="0px" y="0px" viewBox="0 0 91 113.75" enable-background="new 0 0 91 91" xml:space="preserve"><g><path d="M61.484,30.03c-0.07-5.055-5.896-9.146-13.896-10.184c0.529-0.775,0.842-1.713,0.842-2.721c0-2.668-2.17-4.836-4.836-4.836   c-2.668,0-4.838,2.168-4.838,4.836c0,1.01,0.313,1.947,0.846,2.723c-7.133,0.928-12.533,4.285-13.666,8.586h-4.137   c-0.791,0-1.561,0.281-2.158,0.791c-0.684,0.576-1.102,1.385-1.176,2.275c-0.074,0.893,0.201,1.76,0.779,2.443   c0.027,0.033,0.057,0.064,0.086,0.094l6.006,6.816v32.65c0,1.584,0.619,3.074,1.742,4.195c1.125,1.125,2.613,1.742,4.197,1.742   h24.637c1.311,0,2.557-0.42,3.6-1.217c0.135-0.105,0.615-0.486,1.057-1.045c0.824-1.045,1.279-2.35,1.279-3.676V58.147   c4.18-0.426,7.59-2.594,9.699-6.238c2.715-4.693,2.723-10.982,0.02-15.654C69.406,32.524,65.85,30.36,61.484,30.03z M43.594,15.663   c0.805,0,1.461,0.658,1.461,1.463c0,0.807-0.656,1.463-1.461,1.463c-0.807,0-1.463-0.656-1.463-1.463   C42.131,16.321,42.787,15.663,43.594,15.663z M58.473,63.239H28.711V40.218c0-0.41-0.15-0.807-0.422-1.117l-6.426-7.293h20.043   v26.336h-8.994c-0.932,0-1.688,0.756-1.688,1.688s0.756,1.688,1.688,1.688h21.361c0.932,0,1.688-0.756,1.688-1.688   s-0.756-1.688-1.688-1.688h-8.992V31.806l13.191-0.023V63.239z M68.625,50.22c-1.084,1.873-3.117,4.053-6.777,4.539V33.44   c3.686,0.479,5.721,2.645,6.797,4.506C70.73,41.548,70.723,46.595,68.625,50.22z"/></g><text x="0" y="106" fill="#000000" font-size="5px" font-weight="bold" font-family="'Helvetica Neue', Helvetica, Arial-Unicode, Arial, Sans-serif">Created by BomSymbols</text><text x="0" y="111" fill="#000000" font-size="5px" font-weight="bold" font-family="'Helvetica Neue', Helvetica, Arial-Unicode, Arial, Sans-serif">from the Noun Project</text></svg>