<svg xmlns="http://www.w3.org/2000/svg" xmlns:xlink="http://www.w3.org/1999/xlink" version="1.1" x="0px" y="0px" viewBox="0 0 100 125" style="enable-background:new 0 0 100 100;" xml:space="preserve"><g><path d="M87.4,50H70.2l21-38.2c0.7-1.3,0.7-3-0.1-4.3c-0.8-1.3-2.2-2.1-3.7-2.1H12.6c-1.5,0-3,0.8-3.7,2.1c-0.8,1.3-0.8,3-0.1,4.3   l21,38.2H12.6c-2.4,0-4.3,1.9-4.3,4.3s1.9,4.3,4.3,4.3h10.4V62c0,2.4,1.9,4.3,4.3,4.3h45.2c2.4,0,4.3-1.9,4.3-4.3v-3.3h10.4   c2.4,0,4.3-1.9,4.3-4.3S89.8,50,87.4,50z M20,14.1H80L60.3,50H39.7L20,14.1z"/><path d="M57.5,87.1c0-4.1-7.5-15.4-7.5-15.4S42.5,83,42.5,87.1c0,4.1,3.4,7.5,7.5,7.5S57.5,91.3,57.5,87.1z"/></g><text x="0" y="115" fill="#000000" font-size="5px" font-weight="bold" font-family="'Helvetica Neue', Helvetica, Arial-Unicode, Arial, Sans-serif">Created by mikicon</text><text x="0" y="120" fill="#000000" font-size="5px" font-weight="bold" font-family="'Helvetica Neue', Helvetica, Arial-Unicode, Arial, Sans-serif">from the Noun Project</text></svg>