<svg xmlns="http://www.w3.org/2000/svg" viewBox="0 0 32 40" x="0px" y="0px"><title>cofee barista cofeeshop COFEEMAKER</title><g data-name="Layer 15"><path d="M28,12h-.874a5.69854,5.69854,0,0,0,.31537-1.44238,7.34429,7.34429,0,0,0,2.55566-5.002c.0011-.00989-.00305-.01874-.00256-.02856C29.99506,5.51764,30,5.50964,30,5.5a.47085.47085,0,0,0-.0141-.06989.49543.49543,0,0,0-.01965-.09747.47346.47346,0,0,0-.04486-.08575.349.349,0,0,0-.12573-.13959.47791.47791,0,0,0-.07666-.0517.48858.48858,0,0,0-.09479-.03058.47236.47236,0,0,0-.06854-.02209c-.01007-.00116-.019.003-.029.00244C29.51733,5.00488,29.50946,5,29.5,5H2.5c-.00958,0-.01752.00488-.027.00543-.00977.00055-.01886-.00366-.02869-.0025a.4716.4716,0,0,0-.06848.02209.48989.48989,0,0,0-.09491.03064.48023.48023,0,0,0-.07642.05151.48955.48955,0,0,0-.0744.06329.491.491,0,0,0-.05139.07629.48292.48292,0,0,0-.045.08606.49075.49075,0,0,0-.01953.09692A.468.468,0,0,0,2,5.5c0,.00964.00494.01764.00549.02716.00049.00983-.00366.01862-.00256.0285a7.34429,7.34429,0,0,0,2.55566,5.002A5.6986,5.6986,0,0,0,4.874,12H4a2.00261,2.00261,0,0,0-2,2,2.17025,2.17025,0,0,0,.74023,1.54492c.01208.01068.02728.01477.0401.02411.01031.00757.01617.0188.02728.0257a18.40777,18.40777,0,0,1,4.83691,4.623c.01593.02362.04156.03424.06055.05426a.4743.4743,0,0,0,.03125.05121A1.0001,1.0001,0,0,1,7,22H5.5a.49964.49964,0,0,0-.35352.14648l-2,2a.49995.49995,0,0,0,.707.707L5.707,23H11v3.5a.49971.49971,0,0,0,.5.5h9a.49971.49971,0,0,0,.5-.5V23h5.293l1.85352,1.85352a.49995.49995,0,0,0,.707-.707l-2-2A.49964.49964,0,0,0,26.5,22H25a1.0001,1.0001,0,0,1-.73633-1.67676.46554.46554,0,0,0,.03125-.05127c.019-.02.04462-.03058.06055-.0542a18.40777,18.40777,0,0,1,4.83691-4.623c.01111-.0069.017-.01813.02728-.0257.01282-.00934.028-.01343.0401-.02411A2.17025,2.17025,0,0,0,30,14,2.00261,2.00261,0,0,0,28,12ZM20.28772,22H16.672a30.88735,30.88735,0,0,0,3.23926-3h2.11523A6.14423,6.14423,0,0,1,20.28772,22ZM12.672,22a30.88735,30.88735,0,0,0,3.23926-3h2.61743a30.4181,30.4181,0,0,1-3.45276,3ZM5.62677,11H8.12842c-.38782.82416-.80536,1.62408-1.25964,2.39386A4.50628,4.50628,0,0,1,5.62677,11ZM9.98254,6a32.33269,32.33269,0,0,1-1.38739,4H5.67737A33.59286,33.59286,0,0,0,7.02557,6Zm5.00568,0a32.17572,32.17572,0,0,1-1.40057,4H9.67493a33.60468,33.60468,0,0,0,1.35046-4Zm6.99133,0a31.988,31.988,0,0,1-1.39722,4H14.66895a33.422,33.422,0,0,0,1.35986-4Zm4,0a31.988,31.988,0,0,1-1.39722,4h-2.9256a33.21153,33.21153,0,0,0,1.36688-4ZM16.79413,18a29.49534,29.49534,0,0,0,2.24829-3h2.801a28.60649,28.60649,0,0,1-2.38324,3ZM9.82269,18a29.13307,29.13307,0,0,0,2.23053-3h5.79016a28.60649,28.60649,0,0,1-2.38324,3ZM7.67383,14A30.17518,30.17518,0,0,0,9.2312,11h3.90509a29.23224,29.23224,0,0,1-1.632,3Zm6.57208-3h5.87531a29.19,29.19,0,0,1-1.64142,3H12.68787A30.492,30.492,0,0,0,14.24591,11Zm5.40533,3a30.30871,30.30871,0,0,0,1.58636-3h2.88361a29.19,29.19,0,0,1-1.64142,3Zm-8.7876,1a28.05119,28.05119,0,0,1-1.82159,2.37439A4.57477,4.57477,0,0,1,7.71558,15Zm3.665,4a30.33414,30.33414,0,0,1-3.09045,2.70953A6.1818,6.1818,0,0,1,9.97351,19Zm7.82385-1.01172L22.34631,18H20.79413a29.49534,29.49534,0,0,0,2.24829-3h1.242A5.43072,5.43072,0,0,1,22.35254,17.98828ZM24.502,13.96582c-.01178.00916-.01581.02411-.02655.03418h-.82416a30.30871,30.30871,0,0,0,1.58636-3h1.13562A4.71878,4.71878,0,0,1,24.502,13.96582ZM26.64453,9.916a.48091.48091,0,0,0-.07977.097A.46976.46976,0,0,0,26.5,10h-.84326a33.21153,33.21153,0,0,0,1.36688-4h1.8703A6.1274,6.1274,0,0,1,26.64453,9.916ZM3.10608,6H5.98273A32.5465,32.5465,0,0,1,4.83093,9.41125,6.1889,6.1889,0,0,1,3.10608,6ZM8.4707,19.64551,8.46,19.63776a19.06536,19.06536,0,0,0-5.07251-4.8587A1.1638,1.1638,0,0,1,3,14a1.00068,1.00068,0,0,1,1-1H5.33447a6.10632,6.10632,0,0,0,1.34619,1.59082,5.77657,5.77657,0,0,0,2.16016,4.01074A7.55347,7.55347,0,0,0,10.34052,22H8.72168a1.97194,1.97194,0,0,0-.251-2.35449ZM12,26V23h8v1H13.5a.5.5,0,0,0,0,1H20v1Zm11.53992-6.36218-.01062.00769A1.97194,1.97194,0,0,0,23.27832,22H21.65948a7.55347,7.55347,0,0,0,1.49969-3.39844,5.77657,5.77657,0,0,0,2.16016-4.01074A6.10658,6.10658,0,0,0,26.66559,13H28a1.00068,1.00068,0,0,1,1,1,1.16366,1.16366,0,0,1-.38751.779A19.06731,19.06731,0,0,0,23.53992,19.63782Z"/></g><text x="0" y="47" fill="#000000" font-size="5px" font-weight="bold" font-family="'Helvetica Neue', Helvetica, Arial-Unicode, Arial, Sans-serif">Created by DARAYANI</text><text x="0" y="52" fill="#000000" font-size="5px" font-weight="bold" font-family="'Helvetica Neue', Helvetica, Arial-Unicode, Arial, Sans-serif">from the Noun Project</text></svg>