<svg xmlns="http://www.w3.org/2000/svg" viewBox="0 0 25 31.25" x="0px" y="0px"><title>moka pot</title><g data-name="moka pot"><path d="M19.89,6.18A.53.53,0,0,0,19.5,6H17.82L18,4.56a.55.55,0,0,0-.12-.39A.52.52,0,0,0,17.5,4H14.31L15,2.72a.51.51,0,0,0,0-.48A.52.52,0,0,0,14.5,2h-4a.52.52,0,0,0-.43.24.51.51,0,0,0,0,.48L10.69,4H5.5a.51.51,0,0,0-.44.26.47.47,0,0,0,0,.5L7.52,8.67,7.93,12h9.14l.62-5h1.2L18,11.4a.5.5,0,0,0,.39.59h.1a.5.5,0,0,0,.49-.4l1-5A.53.53,0,0,0,19.89,6.18Z"/><rect x="9" y="13" width="7" height="1"/><path d="M7.93,15,7,22.44a.52.52,0,0,0,.13.39A.48.48,0,0,0,7.5,23h10a.52.52,0,0,0,.38-.17.55.55,0,0,0,.12-.39L17.07,15Z"/></g><text x="0" y="40" fill="#000000" font-size="5px" font-weight="bold" font-family="'Helvetica Neue', Helvetica, Arial-Unicode, Arial, Sans-serif">Created by MHD AZMI DWIPRANATA</text><text x="0" y="45" fill="#000000" font-size="5px" font-weight="bold" font-family="'Helvetica Neue', Helvetica, Arial-Unicode, Arial, Sans-serif">from the Noun Project</text></svg>