<svg xmlns:x="http://ns.adobe.com/Extensibility/1.0/" xmlns:i="http://ns.adobe.com/AdobeIllustrator/10.0/" xmlns:graph="http://ns.adobe.com/Graphs/1.0/" xmlns="http://www.w3.org/2000/svg" xmlns:xlink="http://www.w3.org/1999/xlink" xmlns:a="http://ns.adobe.com/AdobeSVGViewerExtensions/3.0/" version="1.1" x="0px" y="0px" viewBox="0 0 64 80" enable-background="new 0 0 64 64" xml:space="preserve"><g><g><rect x="27.772" y="3.711" width="13.598" height="3.32"/><path d="M50,57.8H39.079c0.478-0.444,0.915-0.951,1.293-1.522c2.15,0.569,5.82,0.134,6.538-2.443    c0.729-2.616-2.533-3.928-4.57-3.98c0.007-0.137,0.001-1.653-0.97-1.653H27.77c-1.983,0-0.621,4.452-0.273,5.465    c0.527,1.54,1.384,2.994,2.558,4.135H15V32.002c0-7.557,7.478-8.543,7.793-8.581c0.004,0,0.007-0.001,0.011-0.001h8.036v0.68    c0,0-2.72,5-3.74,6.6c-0.369,0.58-0.689,1.189-0.949,1.84c-0.431,1.051-0.69,2.18-0.69,3.371c0,2.789,1.25,5.279,3.22,6.949h11.78    c1.07-0.9,1.92-2.051,2.48-3.359c0.479-1.1,0.739-2.32,0.739-3.59c0-1.93-0.68-3.691-1.64-5.211c-1.021-1.6-3.74-6.6-3.74-6.6    v-3.35c1.848-1.209,3.07-3.304,3.07-5.68V9.033H27.772v6.037c0,2.376,1.224,4.471,3.069,5.68H30.84v0.67h-8.16    c-0.092,0-0.181,0.013-0.266,0.036C21.196,21.652,13,23.298,13,32.002V58.8c0,0.553,0.447,1,1,1h36c0.553,0,1-0.447,1-1    S50.553,57.8,50,57.8z M42.118,51.841c0.71,0.002,2.882,0.245,2.882,1.34c0,1.082-2.146,1.33-2.85,1.33    c-0.274,0-0.543-0.021-0.8-0.061C41.695,53.622,41.956,52.724,42.118,51.841z M40.35,31.768c0.883,1.397,1.33,2.791,1.33,4.143    c0,0.367-0.027,0.729-0.081,1.083c-1.248-0.597-2.02-1.519-2.929-2.604C37.033,32.434,34.996,30,29.97,30    c-0.043,0-0.085,0-0.128,0c0.753-1.309,1.625-2.884,2.184-3.9h5.089C37.979,27.672,39.591,30.579,40.35,31.768z M28.809,50.2    h11.513c-0.248,3.077-2.027,7.6-5.751,7.6C31.6,57.8,29.144,54.473,28.809,50.2z"/></g></g><text x="0" y="79" fill="#000000" font-size="5px" font-weight="bold" font-family="'Helvetica Neue', Helvetica, Arial-Unicode, Arial, Sans-serif">Created by iconnect</text><text x="0" y="84" fill="#000000" font-size="5px" font-weight="bold" font-family="'Helvetica Neue', Helvetica, Arial-Unicode, Arial, Sans-serif">from the Noun Project</text></svg>